<?xml version="1.0" encoding="UTF-8" standalone="no"?>
<!DOCTYPE svg PUBLIC "-//W3C//DTD SVG 1.1//EN"
 "http://www.w3.org/Graphics/SVG/1.1/DTD/svg11.dtd">
<!-- Generated by graphviz version 9.0.0 (20230911.1827)
 -->
<!-- Title: G Pages: 1 -->
<svg width="366pt" height="116pt"
 viewBox="0.00 0.00 365.74 116.00" xmlns="http://www.w3.org/2000/svg" xmlns:xlink="http://www.w3.org/1999/xlink">
<g id="graph0" class="graph" transform="scale(1 1) rotate(0) translate(4 112)">
<title>G</title>
<polygon fill="white" stroke="none" points="-4,4 -4,-112 361.74,-112 361.74,4 -4,4"/>
<!-- bank1 -->
<g id="node1" class="node">
<title>bank1</title>
<ellipse fill="none" stroke="black" cx="41.74" cy="-18" rx="41.74" ry="18"/>
<text text-anchor="middle" x="41.74" y="-13.32" font-family="Times,serif" font-size="14.00">bank1</text>
</g>
<!-- bank2 -->
<g id="node2" class="node">
<title>bank2</title>
<ellipse fill="none" stroke="black" cx="142.74" cy="-18" rx="41.74" ry="18"/>
<text text-anchor="middle" x="142.74" y="-13.32" font-family="Times,serif" font-size="14.00">bank2</text>
</g>
<!-- bank3 -->
<g id="node3" class="node">
<title>bank3</title>
<ellipse fill="none" stroke="black" cx="243.74" cy="-18" rx="41.74" ry="18"/>
<text text-anchor="middle" x="243.74" y="-13.32" font-family="Times,serif" font-size="14.00">bank3</text>
</g>
<!-- pg -->
<g id="node4" class="node">
<title>pg</title>
<ellipse fill="none" stroke="black" cx="330.74" cy="-18" rx="27" ry="18"/>
<text text-anchor="middle" x="330.74" y="-13.32" font-family="Times,serif" font-size="14.00">pg</text>
</g>
<!-- orcd -->
<g id="node5" class="node">
<title>orcd</title>
<ellipse fill="none" stroke="black" cx="193.74" cy="-90" rx="33.32" ry="18"/>
<text text-anchor="middle" x="193.74" y="-85.33" font-family="Times,serif" font-size="14.00">orcd</text>
</g>
<!-- orcd&#45;&gt;bank1 -->
<g id="edge3" class="edge">
<title>orcd&#45;&gt;bank1</title>
<path fill="none" stroke="black" d="M168.98,-77.6C144.81,-66.47 107.7,-49.38 79.78,-36.52"/>
<polygon fill="black" stroke="black" points="81.5,-33.46 70.96,-32.46 78.58,-39.82 81.5,-33.46"/>
</g>
<!-- orcd&#45;&gt;bank2 -->
<g id="edge4" class="edge">
<title>orcd&#45;&gt;bank2</title>
<path fill="none" stroke="black" d="M181.91,-72.76C175.88,-64.49 168.41,-54.23 161.61,-44.9"/>
<polygon fill="black" stroke="black" points="164.47,-42.88 155.75,-36.86 158.81,-47 164.47,-42.88"/>
</g>
<!-- orcd&#45;&gt;bank3 -->
<g id="edge5" class="edge">
<title>orcd&#45;&gt;bank3</title>
<path fill="none" stroke="black" d="M205.33,-72.76C211.24,-64.49 218.57,-54.23 225.24,-44.9"/>
<polygon fill="black" stroke="black" points="228.01,-47.04 230.98,-36.87 222.32,-42.97 228.01,-47.04"/>
</g>
<!-- orcd&#45;&gt;pg -->
<g id="edge2" class="edge">
<title>orcd&#45;&gt;pg</title>
<path fill="none" stroke="black" d="M217.29,-76.97C240.05,-65.34 274.66,-47.65 299.67,-34.87"/>
<polygon fill="black" stroke="black" points="301.08,-38.09 308.39,-30.42 297.89,-31.85 301.08,-38.09"/>
</g>
<!-- uis -->
<g id="node6" class="node">
<title>uis</title>
<ellipse fill="none" stroke="black" cx="330.74" cy="-90" rx="27" ry="18"/>
<text text-anchor="middle" x="330.74" y="-85.33" font-family="Times,serif" font-size="14.00">uis</text>
</g>
<!-- uis&#45;&gt;pg -->
<g id="edge1" class="edge">
<title>uis&#45;&gt;pg</title>
<path fill="none" stroke="black" d="M330.74,-71.7C330.74,-64.41 330.74,-55.73 330.74,-47.54"/>
<polygon fill="black" stroke="black" points="334.24,-47.62 330.74,-37.62 327.24,-47.62 334.24,-47.62"/>
</g>
</g>
</svg>
