<?xml version="1.0" encoding="UTF-8" standalone="no"?>
<!DOCTYPE svg PUBLIC "-//W3C//DTD SVG 1.1//EN"
 "http://www.w3.org/Graphics/SVG/1.1/DTD/svg11.dtd">
<!-- Generated by graphviz version 9.0.0 (20230911.1827)
 -->
<!-- Title: G Pages: 1 -->
<svg width="894pt" height="289pt"
 viewBox="0.00 0.00 894.00 288.69" xmlns="http://www.w3.org/2000/svg" xmlns:xlink="http://www.w3.org/1999/xlink">
<g id="graph0" class="graph" transform="scale(1 1) rotate(0) translate(4 284.69)">
<title>G</title>
<polygon fill="white" stroke="none" points="-4,4 -4,-284.69 890,-284.69 890,4 -4,4"/>
<g id="clust1" class="cluster">
<title>cluster_adapter</title>
<polygon fill="none" stroke="black" points="348,-8 348,-85.25 878,-85.25 878,-8 348,-8"/>
<text text-anchor="middle" x="613" y="-67.95" font-family="Times,serif" font-size="14.00">External Adapter Layer</text>
</g>
<g id="clust2" class="cluster">
<title>cluster_orc</title>
<polygon fill="none" stroke="black" points="180,-8 180,-261.1 340,-261.1 340,-8 180,-8"/>
<text text-anchor="middle" x="260" y="-243.8" font-family="Times,serif" font-size="14.00">Orchestration Layer</text>
</g>
<g id="clust3" class="cluster">
<title>cluster_ui</title>
<polygon fill="none" stroke="black" points="8,-93.25 8,-272.69 172,-272.69 172,-93.25 8,-93.25"/>
<text text-anchor="middle" x="90" y="-255.39" font-family="Times,serif" font-size="14.00">User Interface Layer</text>
</g>
<!-- bank1 -->
<g id="node1" class="node">
<title>bank1</title>
<ellipse fill="lightgreen" stroke="black" cx="790" cy="-34" rx="79.62" ry="18"/>
<text text-anchor="middle" x="790" y="-29.32" font-family="Times,serif" font-size="14.00">Bank Adapter</text>
</g>
<!-- bank2 -->
<g id="node2" class="node">
<title>bank2</title>
<ellipse fill="lightgreen" stroke="black" cx="613" cy="-34" rx="79.62" ry="18"/>
<text text-anchor="middle" x="613" y="-29.32" font-family="Times,serif" font-size="14.00">Bank Adapter</text>
</g>
<!-- bank3 -->
<g id="node3" class="node">
<title>bank3</title>
<ellipse fill="lightgreen" stroke="black" cx="436" cy="-34" rx="79.62" ry="18"/>
<text text-anchor="middle" x="436" y="-29.32" font-family="Times,serif" font-size="14.00">Bank Adapter</text>
</g>
<!-- pg -->
<g id="node4" class="node">
<title>pg</title>
<path fill="cyan" stroke="black" d="M316.12,-48.73C316.12,-50.53 290.52,-52 259,-52 227.48,-52 201.88,-50.53 201.88,-48.73 201.88,-48.73 201.88,-19.27 201.88,-19.27 201.88,-17.47 227.48,-16 259,-16 290.52,-16 316.12,-17.47 316.12,-19.27 316.12,-19.27 316.12,-48.73 316.12,-48.73"/>
<path fill="none" stroke="black" d="M316.12,-48.73C316.12,-46.92 290.52,-45.45 259,-45.45 227.48,-45.45 201.88,-46.92 201.88,-48.73"/>
<text text-anchor="middle" x="259" y="-29.32" font-family="Times,serif" font-size="14.00">RDS Postgres</text>
</g>
<!-- orcd -->
<g id="node5" class="node">
<title>orcd</title>
<polygon fill="cyan" stroke="black" points="331.5,-227.85 216.5,-227.85 216.5,-112.85 331.5,-112.85 331.5,-227.85"/>
<text text-anchor="middle" x="274" y="-165.67" font-family="Times,serif" font-size="14.00">Orchestration</text>
</g>
<!-- orcd&#45;&gt;bank1 -->
<g id="edge3" class="edge">
<title>orcd&#45;&gt;bank1</title>
<path fill="none" stroke="black" d="M331.69,-164.01C415.44,-154.94 574.61,-132.68 702,-85.25 720.98,-78.18 740.68,-67.31 756.62,-57.49"/>
<polygon fill="black" stroke="black" points="758.16,-60.66 764.74,-52.36 754.42,-54.74 758.16,-60.66"/>
<text text-anchor="middle" x="784.77" y="-55.5" font-family="Times,serif" font-size="14.00">https</text>
</g>
<!-- orcd&#45;&gt;bank2 -->
<g id="edge4" class="edge">
<title>orcd&#45;&gt;bank2</title>
<path fill="none" stroke="black" d="M331.78,-153.49C383.45,-138.49 460.72,-114.04 525,-85.25 542.91,-77.23 561.93,-66.65 577.68,-57.28"/>
<polygon fill="black" stroke="black" points="579.47,-60.28 586.22,-52.11 575.85,-54.29 579.47,-60.28"/>
<text text-anchor="middle" x="568.76" y="-55.28" font-family="Times,serif" font-size="14.00">https</text>
</g>
<!-- orcd&#45;&gt;bank3 -->
<g id="edge5" class="edge">
<title>orcd&#45;&gt;bank3</title>
<path fill="none" stroke="black" d="M331.57,-121.6C357.24,-100.32 386.34,-76.18 407.29,-58.81"/>
<polygon fill="black" stroke="black" points="409.39,-61.61 414.85,-52.54 404.92,-56.23 409.39,-61.61"/>
<text text-anchor="middle" x="434.77" y="-55.52" font-family="Times,serif" font-size="14.00">https</text>
</g>
<!-- orcd&#45;&gt;pg -->
<g id="edge2" class="edge">
<title>orcd&#45;&gt;pg</title>
<path fill="none" stroke="black" d="M263.26,-112.54C259.77,-94.08 256.24,-75.44 254.09,-64.05"/>
<polygon fill="black" stroke="black" points="257.58,-63.66 252.28,-54.49 250.7,-64.96 257.58,-63.66"/>
</g>
<!-- uis -->
<g id="node6" class="node">
<title>uis</title>
<ellipse fill="yellow" stroke="black" cx="95" cy="-170.35" rx="69.1" ry="69.1"/>
<text text-anchor="middle" x="95" y="-165.67" font-family="Times,serif" font-size="14.00">API Service</text>
</g>
<!-- uis&#45;&gt;pg -->
<g id="edge1" class="edge">
<title>uis&#45;&gt;pg</title>
<path fill="none" stroke="black" d="M142.87,-120.44C153.35,-110.88 164.7,-101.33 176,-93.25 197.74,-77.71 226.24,-64.22 241.41,-57.52"/>
<polygon fill="black" stroke="black" points="242.78,-60.74 250.61,-53.59 240.04,-54.3 242.78,-60.74"/>
<text text-anchor="middle" x="220.88" y="-56.95" font-family="Times,serif" font-size="14.00">postgres</text>
</g>
</g>
</svg>
