<?xml version="1.0" encoding="UTF-8" standalone="no"?>
<!DOCTYPE svg PUBLIC "-//W3C//DTD SVG 1.1//EN"
 "http://www.w3.org/Graphics/SVG/1.1/DTD/svg11.dtd">
<!-- Generated by graphviz version 9.0.0 (20230911.1827)
 -->
<!-- Title: G Pages: 1 -->
<svg width="881pt" height="440pt"
 viewBox="0.00 0.00 881.00 439.69" xmlns="http://www.w3.org/2000/svg" xmlns:xlink="http://www.w3.org/1999/xlink">
<g id="graph0" class="graph" transform="scale(1 1) rotate(0) translate(4 435.69)">
<title>G</title>
<polygon fill="white" stroke="none" points="-4,4 -4,-435.69 877,-435.69 877,4 -4,4"/>
<g id="clust1" class="cluster">
<title>cluster_adapter</title>
<polygon fill="none" stroke="black" points="8,-8 8,-85.25 538,-85.25 538,-8 8,-8"/>
<text text-anchor="middle" x="273" y="-67.95" font-family="Times,serif" font-size="14.00">External Adapter Layer</text>
</g>
<g id="clust2" class="cluster">
<title>cluster_orc</title>
<polygon fill="none" stroke="black" points="30,-93.25 30,-412.1 693,-412.1 693,-93.25 30,-93.25"/>
<text text-anchor="middle" x="361.5" y="-394.8" font-family="Times,serif" font-size="14.00">Orchestration Layer</text>
</g>
<g id="clust3" class="cluster">
<title>cluster_ui</title>
<polygon fill="none" stroke="black" points="701,-244.25 701,-423.69 865,-423.69 865,-244.25 701,-244.25"/>
<text text-anchor="middle" x="783" y="-406.39" font-family="Times,serif" font-size="14.00">User Interface Layer</text>
</g>
<!-- bank1 -->
<g id="node1" class="node">
<title>bank1</title>
<ellipse fill="lightgreen" stroke="black" cx="450" cy="-34" rx="79.62" ry="18"/>
<text text-anchor="middle" x="450" y="-29.32" font-family="Times,serif" font-size="14.00">Bank Adapter</text>
</g>
<!-- bank2 -->
<g id="node2" class="node">
<title>bank2</title>
<ellipse fill="lightgreen" stroke="black" cx="273" cy="-34" rx="79.62" ry="18"/>
<text text-anchor="middle" x="273" y="-29.32" font-family="Times,serif" font-size="14.00">Bank Adapter</text>
</g>
<!-- bank3 -->
<g id="node3" class="node">
<title>bank3</title>
<ellipse fill="lightgreen" stroke="black" cx="96" cy="-34" rx="79.62" ry="18"/>
<text text-anchor="middle" x="96" y="-29.32" font-family="Times,serif" font-size="14.00">Bank Adapter</text>
</g>
<!-- pg -->
<g id="node4" class="node">
<title>pg</title>
<path fill="cyan" stroke="black" d="M685.12,-173.48C685.12,-175.28 659.52,-176.75 628,-176.75 596.48,-176.75 570.88,-175.28 570.88,-173.48 570.88,-173.48 570.88,-144.02 570.88,-144.02 570.88,-142.22 596.48,-140.75 628,-140.75 659.52,-140.75 685.12,-142.22 685.12,-144.02 685.12,-144.02 685.12,-173.48 685.12,-173.48"/>
<path fill="none" stroke="black" d="M685.12,-173.48C685.12,-171.67 659.52,-170.2 628,-170.2 596.48,-170.2 570.88,-171.67 570.88,-173.48"/>
<text text-anchor="middle" x="628" y="-154.07" font-family="Times,serif" font-size="14.00">RDS Postgres</text>
</g>
<!-- oso -->
<g id="node5" class="node">
<title>oso</title>
<polygon fill="cyan" stroke="black" points="419.5,-378.85 304.5,-378.85 304.5,-263.85 419.5,-263.85 419.5,-378.85"/>
<text text-anchor="middle" x="362" y="-333.92" font-family="Times,serif" font-size="14.00">Orchestration</text>
<text text-anchor="middle" x="362" y="-316.67" font-family="Times,serif" font-size="14.00">Scheduling</text>
<text text-anchor="middle" x="362" y="-299.42" font-family="Times,serif" font-size="14.00">OVerlord</text>
</g>
<!-- oso&#45;&gt;pg -->
<g id="edge2" class="edge">
<title>oso&#45;&gt;pg</title>
<path fill="none" stroke="black" d="M419.89,-291.54C460.13,-271.2 514.8,-242.92 562,-216.25 581.42,-205.28 603.54,-191.44 615.73,-183.69"/>
<polygon fill="black" stroke="black" points="617.19,-186.91 623.73,-178.57 613.42,-181.02 617.19,-186.91"/>
</g>
<!-- bow1 -->
<g id="node6" class="node">
<title>bow1</title>
<polygon fill="cyan" stroke="black" points="552.5,-216.25 437.5,-216.25 437.5,-101.25 552.5,-101.25 552.5,-216.25"/>
<text text-anchor="middle" x="495" y="-171.32" font-family="Times,serif" font-size="14.00">Bridge</text>
<text text-anchor="middle" x="495" y="-154.07" font-family="Times,serif" font-size="14.00">Orchestration</text>
<text text-anchor="middle" x="495" y="-136.82" font-family="Times,serif" font-size="14.00">Worker</text>
</g>
<!-- oso&#45;&gt;bow1 -->
<g id="edge3" class="edge">
<title>oso&#45;&gt;bow1</title>
<path fill="none" stroke="black" d="M408.89,-263.73C419.16,-251.33 430.11,-238.1 440.65,-225.38"/>
<polygon fill="black" stroke="black" points="443.21,-227.77 446.89,-217.84 437.82,-223.31 443.21,-227.77"/>
</g>
<!-- bow2 -->
<g id="node7" class="node">
<title>bow2</title>
<polygon fill="cyan" stroke="black" points="286.5,-216.25 171.5,-216.25 171.5,-101.25 286.5,-101.25 286.5,-216.25"/>
<text text-anchor="middle" x="229" y="-171.32" font-family="Times,serif" font-size="14.00">Bridge</text>
<text text-anchor="middle" x="229" y="-154.07" font-family="Times,serif" font-size="14.00">Orchestration</text>
<text text-anchor="middle" x="229" y="-136.82" font-family="Times,serif" font-size="14.00">Worker</text>
</g>
<!-- oso&#45;&gt;bow2 -->
<g id="edge4" class="edge">
<title>oso&#45;&gt;bow2</title>
<path fill="none" stroke="black" d="M315.11,-263.73C304.84,-251.33 293.89,-238.1 283.35,-225.38"/>
<polygon fill="black" stroke="black" points="286.18,-223.31 277.11,-217.84 280.79,-227.77 286.18,-223.31"/>
</g>
<!-- bow3 -->
<g id="node8" class="node">
<title>bow3</title>
<polygon fill="cyan" stroke="black" points="419.5,-216.25 304.5,-216.25 304.5,-101.25 419.5,-101.25 419.5,-216.25"/>
<text text-anchor="middle" x="362" y="-171.32" font-family="Times,serif" font-size="14.00">Bridge</text>
<text text-anchor="middle" x="362" y="-154.07" font-family="Times,serif" font-size="14.00">Orchestration</text>
<text text-anchor="middle" x="362" y="-136.82" font-family="Times,serif" font-size="14.00">Worker</text>
</g>
<!-- oso&#45;&gt;bow3 -->
<g id="edge5" class="edge">
<title>oso&#45;&gt;bow3</title>
<path fill="none" stroke="black" d="M362,-263.73C362,-252.16 362,-239.88 362,-227.95"/>
<polygon fill="black" stroke="black" points="365.5,-228.18 362,-218.18 358.5,-228.18 365.5,-228.18"/>
</g>
<!-- bow4 -->
<g id="node9" class="node">
<title>bow4</title>
<polygon fill="cyan" stroke="black" points="153.5,-216.25 38.5,-216.25 38.5,-101.25 153.5,-101.25 153.5,-216.25"/>
<text text-anchor="middle" x="96" y="-171.32" font-family="Times,serif" font-size="14.00">Bridge</text>
<text text-anchor="middle" x="96" y="-154.07" font-family="Times,serif" font-size="14.00">Orchestration</text>
<text text-anchor="middle" x="96" y="-136.82" font-family="Times,serif" font-size="14.00">Worker</text>
</g>
<!-- oso&#45;&gt;bow4 -->
<g id="edge6" class="edge">
<title>oso&#45;&gt;bow4</title>
<path fill="none" stroke="black" d="M304.37,-294.34C265.98,-276.09 214.75,-249.96 163.45,-216.23"/>
<polygon fill="black" stroke="black" points="165.39,-213.32 155.13,-210.68 161.51,-219.14 165.39,-213.32"/>
</g>
<!-- bow1&#45;&gt;bank1 -->
<g id="edge7" class="edge">
<title>bow1&#45;&gt;bank1</title>
<path fill="none" stroke="black" d="M474.21,-101.05C469.34,-87.76 464.36,-74.18 460.2,-62.82"/>
<polygon fill="black" stroke="black" points="463.59,-61.89 456.86,-53.71 457.01,-64.3 463.59,-61.89"/>
<text text-anchor="middle" x="437.59" y="-56.24" font-family="Times,serif" font-size="14.00">https</text>
</g>
<!-- bow2&#45;&gt;bank2 -->
<g id="edge8" class="edge">
<title>bow2&#45;&gt;bank2</title>
<path fill="none" stroke="black" d="M249.33,-101.05C254.09,-87.76 258.96,-74.18 263.03,-62.82"/>
<polygon fill="black" stroke="black" points="266.21,-64.3 266.29,-53.71 259.62,-61.94 266.21,-64.3"/>
<text text-anchor="middle" x="248.05" y="-56.24" font-family="Times,serif" font-size="14.00">https</text>
</g>
<!-- bow4&#45;&gt;bank3 -->
<g id="edge9" class="edge">
<title>bow4&#45;&gt;bank3</title>
<path fill="none" stroke="black" d="M96,-101.05C96,-88.04 96,-74.75 96,-63.53"/>
<polygon fill="black" stroke="black" points="99.5,-63.8 96,-53.8 92.5,-63.8 99.5,-63.8"/>
<text text-anchor="middle" x="77.25" y="-56.24" font-family="Times,serif" font-size="14.00">https</text>
</g>
<!-- uis -->
<g id="node10" class="node">
<title>uis</title>
<ellipse fill="yellow" stroke="black" cx="778" cy="-321.35" rx="69.1" ry="69.1"/>
<text text-anchor="middle" x="778" y="-316.67" font-family="Times,serif" font-size="14.00">API Service</text>
</g>
<!-- uis&#45;&gt;pg -->
<g id="edge1" class="edge">
<title>uis&#45;&gt;pg</title>
<path fill="none" stroke="black" d="M727.94,-273.19C717.72,-263.6 707.02,-253.59 697,-244.25 674.09,-222.91 646.92,-197.89 633.45,-185.51"/>
<polygon fill="black" stroke="black" points="635.85,-182.96 626.11,-178.77 631.11,-188.12 635.85,-182.96"/>
<text text-anchor="middle" x="593.88" y="-181.7" font-family="Times,serif" font-size="14.00">postgres</text>
</g>
</g>
</svg>
