<?xml version="1.0" encoding="UTF-8" standalone="no"?>
<!DOCTYPE svg PUBLIC "-//W3C//DTD SVG 1.1//EN"
 "http://www.w3.org/Graphics/SVG/1.1/DTD/svg11.dtd">
<!-- Generated by graphviz version 9.0.0 (20230911.1827)
 -->
<!-- Title: G Pages: 1 -->
<svg width="878pt" height="116pt"
 viewBox="0.00 0.00 877.73 116.00" xmlns="http://www.w3.org/2000/svg" xmlns:xlink="http://www.w3.org/1999/xlink">
<g id="graph0" class="graph" transform="scale(1 1) rotate(0) translate(4 112)">
<title>G</title>
<polygon fill="white" stroke="none" points="-4,4 -4,-112 873.73,-112 873.73,4 -4,4"/>
<!-- cluster -->
<g id="node1" class="node">
<title>cluster</title>
<ellipse fill="none" stroke="black" cx="45.95" cy="-90" rx="45.95" ry="18"/>
<text text-anchor="middle" x="45.95" y="-85.33" font-family="Times,serif" font-size="14.00">cluster</text>
</g>
<!-- subgraph_adapter -->
<g id="node2" class="node">
<title>subgraph_adapter</title>
<ellipse fill="none" stroke="black" cx="211.95" cy="-90" rx="102.24" ry="18"/>
<text text-anchor="middle" x="211.95" y="-85.33" font-family="Times,serif" font-size="14.00">subgraph_adapter</text>
</g>
<!-- bank1 -->
<g id="node3" class="node">
<title>bank1</title>
<ellipse fill="none" stroke="black" cx="213.95" cy="-18" rx="41.74" ry="18"/>
<text text-anchor="middle" x="213.95" y="-13.32" font-family="Times,serif" font-size="14.00">bank1</text>
</g>
<!-- bank2 -->
<g id="node4" class="node">
<title>bank2</title>
<ellipse fill="none" stroke="black" cx="314.95" cy="-18" rx="41.74" ry="18"/>
<text text-anchor="middle" x="314.95" y="-13.32" font-family="Times,serif" font-size="14.00">bank2</text>
</g>
<!-- bank3 -->
<g id="node5" class="node">
<title>bank3</title>
<ellipse fill="none" stroke="black" cx="415.95" cy="-18" rx="41.74" ry="18"/>
<text text-anchor="middle" x="415.95" y="-13.32" font-family="Times,serif" font-size="14.00">bank3</text>
</g>
<!-- subgraph_orc -->
<g id="node6" class="node">
<title>subgraph_orc</title>
<ellipse fill="none" stroke="black" cx="626.95" cy="-90" rx="79.09" ry="18"/>
<text text-anchor="middle" x="626.95" y="-85.33" font-family="Times,serif" font-size="14.00">subgraph_orc</text>
</g>
<!-- pg -->
<g id="node7" class="node">
<title>pg</title>
<ellipse fill="none" stroke="black" cx="502.95" cy="-18" rx="27" ry="18"/>
<text text-anchor="middle" x="502.95" y="-13.32" font-family="Times,serif" font-size="14.00">pg</text>
</g>
<!-- orcd -->
<g id="node8" class="node">
<title>orcd</title>
<ellipse fill="none" stroke="black" cx="365.95" cy="-90" rx="33.32" ry="18"/>
<text text-anchor="middle" x="365.95" y="-85.33" font-family="Times,serif" font-size="14.00">orcd</text>
</g>
<!-- orcd&#45;&gt;bank1 -->
<g id="edge3" class="edge">
<title>orcd&#45;&gt;bank1</title>
<path fill="none" stroke="black" d="M341.19,-77.6C317.02,-66.47 279.91,-49.38 251.99,-36.52"/>
<polygon fill="black" stroke="black" points="253.71,-33.46 243.16,-32.46 250.78,-39.82 253.71,-33.46"/>
</g>
<!-- orcd&#45;&gt;bank2 -->
<g id="edge4" class="edge">
<title>orcd&#45;&gt;bank2</title>
<path fill="none" stroke="black" d="M354.12,-72.76C348.09,-64.49 340.62,-54.23 333.82,-44.9"/>
<polygon fill="black" stroke="black" points="336.67,-42.88 327.96,-36.86 331.02,-47 336.67,-42.88"/>
</g>
<!-- orcd&#45;&gt;bank3 -->
<g id="edge5" class="edge">
<title>orcd&#45;&gt;bank3</title>
<path fill="none" stroke="black" d="M377.54,-72.76C383.45,-64.49 390.78,-54.23 397.45,-44.9"/>
<polygon fill="black" stroke="black" points="400.22,-47.04 403.19,-36.87 394.53,-42.97 400.22,-47.04"/>
</g>
<!-- orcd&#45;&gt;pg -->
<g id="edge2" class="edge">
<title>orcd&#45;&gt;pg</title>
<path fill="none" stroke="black" d="M389.5,-76.97C412.26,-65.34 446.87,-47.65 471.88,-34.87"/>
<polygon fill="black" stroke="black" points="473.29,-38.09 480.6,-30.42 470.1,-31.85 473.29,-38.09"/>
</g>
<!-- subgraph_ui -->
<g id="node9" class="node">
<title>subgraph_ui</title>
<ellipse fill="none" stroke="black" cx="796.95" cy="-90" rx="72.78" ry="18"/>
<text text-anchor="middle" x="796.95" y="-85.33" font-family="Times,serif" font-size="14.00">subgraph_ui</text>
</g>
<!-- uis -->
<g id="node10" class="node">
<title>uis</title>
<ellipse fill="none" stroke="black" cx="502.95" cy="-90" rx="27" ry="18"/>
<text text-anchor="middle" x="502.95" y="-85.33" font-family="Times,serif" font-size="14.00">uis</text>
</g>
<!-- uis&#45;&gt;pg -->
<g id="edge1" class="edge">
<title>uis&#45;&gt;pg</title>
<path fill="none" stroke="black" d="M502.95,-71.7C502.95,-64.41 502.95,-55.73 502.95,-47.54"/>
<polygon fill="black" stroke="black" points="506.45,-47.62 502.95,-37.62 499.45,-47.62 506.45,-47.62"/>
</g>
</g>
</svg>
