<?xml version="1.0" encoding="UTF-8" standalone="no"?>
<!DOCTYPE svg PUBLIC "-//W3C//DTD SVG 1.1//EN"
 "http://www.w3.org/Graphics/SVG/1.1/DTD/svg11.dtd">
<!-- Generated by graphviz version 9.0.0 (20230911.1827)
 -->
<!-- Title: states Pages: 1 -->
<svg width="548pt" height="223pt"
 viewBox="0.00 0.00 547.80 222.50" xmlns="http://www.w3.org/2000/svg" xmlns:xlink="http://www.w3.org/1999/xlink">
<g id="graph0" class="graph" transform="scale(1 1) rotate(0) translate(4 218.5)">
<title>states</title>
<polygon fill="white" stroke="none" points="-4,4 -4,-218.5 543.8,-218.5 543.8,4 -4,4"/>
<!-- new -->
<g id="node1" class="node">
<title>new</title>
<ellipse fill="none" stroke="black" cx="63.05" cy="-196.5" rx="31.74" ry="18"/>
<text text-anchor="middle" x="63.05" y="-191.82" font-family="Times,serif" font-size="14.00">new</text>
</g>
<!-- pending -->
<g id="node2" class="node">
<title>pending</title>
<ellipse fill="none" stroke="black" cx="207.05" cy="-107.25" rx="51.73" ry="18"/>
<text text-anchor="middle" x="207.05" y="-102.58" font-family="Times,serif" font-size="14.00">pending</text>
</g>
<!-- new&#45;&gt;pending -->
<g id="edge1" class="edge">
<title>new&#45;&gt;pending</title>
<path fill="none" stroke="black" d="M84.3,-182.63C107.57,-168.53 145.23,-145.7 172.71,-129.05"/>
<polygon fill="black" stroke="black" points="174.3,-132.19 181.03,-124.01 170.67,-126.2 174.3,-132.19"/>
<text text-anchor="middle" x="188.17" y="-147.2" font-family="Times,serif" font-size="14.00">start_xfer()</text>
</g>
<!-- cancelled -->
<g id="node4" class="node">
<title>cancelled</title>
<ellipse fill="none" stroke="black" cx="58.05" cy="-18" rx="58.05" ry="18"/>
<text text-anchor="middle" x="58.05" y="-13.32" font-family="Times,serif" font-size="14.00">cancelled</text>
</g>
<!-- new&#45;&gt;cancelled -->
<g id="edge3" class="edge">
<title>new&#45;&gt;cancelled</title>
<path fill="none" stroke="black" d="M60.61,-178.22C58.73,-164.03 56.29,-143.38 55.3,-125.25 53.85,-98.94 54.87,-68.93 56.06,-47.53"/>
<polygon fill="black" stroke="black" points="59.54,-48.02 56.65,-37.82 52.55,-47.59 59.54,-48.02"/>
<text text-anchor="middle" x="101.42" y="-102.58" font-family="Times,serif" font-size="14.00">cancel_xfer()</text>
</g>
<!-- success -->
<g id="node3" class="node">
<title>success</title>
<ellipse fill="none" stroke="black" cx="462.05" cy="-18" rx="49.63" ry="18"/>
<text text-anchor="middle" x="462.05" y="-13.32" font-family="Times,serif" font-size="14.00">success</text>
</g>
<!-- pending&#45;&gt;success -->
<g id="edge2" class="edge">
<title>pending&#45;&gt;success</title>
<path fill="none" stroke="black" d="M256.75,-101.89C309.95,-96.54 390.31,-86.29 417.05,-71.25 428.28,-64.93 438.01,-54.69 445.53,-44.95"/>
<polygon fill="black" stroke="black" points="448.16,-47.29 451.15,-37.13 442.48,-43.2 448.16,-47.29"/>
<text text-anchor="middle" x="488.42" y="-57.95" font-family="Times,serif" font-size="14.00">succeed_xfer()</text>
</g>
<!-- pending&#45;&gt;cancelled -->
<g id="edge4" class="edge">
<title>pending&#45;&gt;cancelled</title>
<path fill="none" stroke="black" d="M166.57,-95.74C140.88,-88.57 110.43,-79.01 99.3,-71.25 89.44,-64.39 80.79,-54.49 73.99,-45.15"/>
<polygon fill="black" stroke="black" points="76.98,-43.31 68.45,-37.02 71.19,-47.25 76.98,-43.31"/>
<text text-anchor="middle" x="145.42" y="-57.95" font-family="Times,serif" font-size="14.00">cancel_xfer()</text>
</g>
<!-- aborted -->
<g id="node5" class="node">
<title>aborted</title>
<ellipse fill="none" stroke="black" cx="185.05" cy="-18" rx="50.16" ry="18"/>
<text text-anchor="middle" x="185.05" y="-13.32" font-family="Times,serif" font-size="14.00">aborted</text>
</g>
<!-- pending&#45;&gt;aborted -->
<g id="edge5" class="edge">
<title>pending&#45;&gt;aborted</title>
<path fill="none" stroke="black" d="M202.7,-89.01C199.69,-77.06 195.61,-60.88 192.13,-47.08"/>
<polygon fill="black" stroke="black" points="195.59,-46.51 189.75,-37.67 188.81,-48.22 195.59,-46.51"/>
<text text-anchor="middle" x="246.17" y="-57.95" font-family="Times,serif" font-size="14.00">fail_xfer(true)</text>
</g>
<!-- catastrophe -->
<g id="node6" class="node">
<title>catastrophe</title>
<ellipse fill="none" stroke="black" cx="324.05" cy="-18" rx="70.67" ry="18"/>
<text text-anchor="middle" x="324.05" y="-13.32" font-family="Times,serif" font-size="14.00">catastrophe</text>
</g>
<!-- pending&#45;&gt;catastrophe -->
<g id="edge6" class="edge">
<title>pending&#45;&gt;catastrophe</title>
<path fill="none" stroke="black" d="M250.59,-97.07C267.31,-91.78 285.59,-83.63 299.05,-71.25 306.23,-64.64 311.56,-55.54 315.4,-46.78"/>
<polygon fill="black" stroke="black" points="318.65,-48.08 318.97,-37.49 312.12,-45.57 318.65,-48.08"/>
<text text-anchor="middle" x="362.05" y="-57.95" font-family="Times,serif" font-size="14.00">fail_xfer(false)</text>
</g>
</g>
</svg>
